<?xml version="1.0" encoding="UTF-8"?>
<svg version="1.1" xmlns="http://www.w3.org/2000/svg" width="349" height="116">
<path d="M0 0 C1.12535156 -0.02513672 1.12535156 -0.02513672 2.2734375 -0.05078125 C5.36042255 0.42611179 7.08008784 1.4952615 9.625 3.3125 C11.33837891 5.8527832 11.33837891 5.8527832 12.8515625 8.86328125 C13.4084375 9.95447266 13.9653125 11.04566406 14.5390625 12.16992188 C15.10367188 13.31009766 15.66828125 14.45027344 16.25 15.625 C16.82234375 16.75357422 17.3946875 17.88214844 17.984375 19.04492188 C19.54476575 22.1276008 21.08799545 25.21811101 22.625 28.3125 C23.62459446 30.31270272 24.6244799 32.31276014 25.625 34.3125 C25.66258423 32.82085327 25.66258423 32.82085327 25.70092773 31.29907227 C25.79484882 27.62201253 25.89510619 23.9451485 25.99731445 20.26831055 C26.04072146 18.674607 26.08239219 17.0808552 26.12231445 15.48706055 C26.17987807 13.20086092 26.24361149 10.91490551 26.30859375 8.62890625 C26.32530624 7.91223282 26.34201874 7.19555939 26.35923767 6.45716858 C26.51112829 1.42637171 26.51112829 1.42637171 27.625 0.3125 C29.4375 0.1796875 29.4375 0.1796875 31.625 0.1875 C32.346875 0.18492188 33.06875 0.18234375 33.8125 0.1796875 C35.625 0.3125 35.625 0.3125 36.625 1.3125 C36.72874958 2.89765578 36.76351889 4.48739466 36.77026367 6.07592773 C36.77664352 7.09045517 36.78302338 8.1049826 36.78959656 9.1502533 C36.79070938 10.25438065 36.7918222 11.358508 36.79296875 12.49609375 C36.79796135 14.18485374 36.79796135 14.18485374 36.80305481 15.9077301 C36.80812894 18.29435821 36.81046299 20.68099345 36.81030273 23.06762695 C36.81248851 26.73074974 36.8306374 30.39357122 36.84960938 34.05664062 C36.85254326 36.36979063 36.85452809 38.68294208 36.85546875 40.99609375 C36.86265427 42.09819687 36.86983978 43.20029999 36.87724304 44.33580017 C36.87416641 45.35347977 36.87108978 46.37115936 36.86791992 47.41967773 C36.86934494 48.31822983 36.87076996 49.21678192 36.87223816 50.14256287 C36.625 52.3125 36.625 52.3125 34.625 54.3125 C32.63671875 54.6484375 32.63671875 54.6484375 30.3125 54.6875 C29.55324219 54.71585938 28.79398438 54.74421875 28.01171875 54.7734375 C24.66564921 54.1272244 23.12911186 52.60952276 20.625 50.3125 C18.80395508 47.44335937 18.80395508 47.44335937 17.14453125 44.15625 C16.84560471 43.57210327 16.54667816 42.98795654 16.23869324 42.3861084 C15.29389968 40.53361204 14.3655515 38.67343033 13.4375 36.8125 C12.80380548 35.56325818 12.16904909 34.31455439 11.53320312 33.06640625 C9.88375619 29.82174895 8.25124063 26.56886052 6.625 23.3125 C5.965 21.9925 5.305 20.6725 4.625 19.3125 C4.295 30.5325 3.965 41.7525 3.625 53.3125 C0.63905576 54.80547212 -2.08353624 54.43005228 -5.375 54.3125 C-6.035 53.9825 -6.695 53.6525 -7.375 53.3125 C-7.45087458 46.08600568 -7.50352551 38.85961351 -7.53979492 31.6328125 C-7.55490988 29.17281252 -7.57540227 26.71283959 -7.60131836 24.25292969 C-7.6375823 20.72323948 -7.65469914 17.19390456 -7.66796875 13.6640625 C-7.68345261 12.55882233 -7.69893646 11.45358215 -7.71488953 10.31484985 C-7.71511612 9.29394257 -7.71534271 8.27303528 -7.71557617 7.22119141 C-7.72223801 6.31962311 -7.72889984 5.41805481 -7.73576355 4.48916626 C-7.61671158 3.77086639 -7.49765961 3.05256653 -7.375 2.3125 C-4.30245875 0.26413917 -3.50331715 0.01793507 0 0 Z " fill="#C490D4" transform="translate(185.375,31.6875)"/>
<path d="M0 0 C1.12535156 -0.02513672 1.12535156 -0.02513672 2.2734375 -0.05078125 C5.36042255 0.42611179 7.08008784 1.4952615 9.625 3.3125 C11.33837891 5.8527832 11.33837891 5.8527832 12.8515625 8.86328125 C13.4084375 9.95447266 13.9653125 11.04566406 14.5390625 12.16992188 C15.10367188 13.31009766 15.66828125 14.45027344 16.25 15.625 C16.82234375 16.75357422 17.3946875 17.88214844 17.984375 19.04492188 C19.54476575 22.1276008 21.08799545 25.21811101 22.625 28.3125 C23.62459446 30.31270272 24.6244799 32.31276014 25.625 34.3125 C25.66258423 32.82085327 25.66258423 32.82085327 25.70092773 31.29907227 C25.79484882 27.62201253 25.89510619 23.9451485 25.99731445 20.26831055 C26.04072146 18.674607 26.08239219 17.0808552 26.12231445 15.48706055 C26.17987807 13.20086092 26.24361149 10.91490551 26.30859375 8.62890625 C26.32530624 7.91223282 26.34201874 7.19555939 26.35923767 6.45716858 C26.51112829 1.42637171 26.51112829 1.42637171 27.625 0.3125 C29.4375 0.1796875 29.4375 0.1796875 31.625 0.1875 C32.346875 0.18492188 33.06875 0.18234375 33.8125 0.1796875 C35.625 0.3125 35.625 0.3125 36.625 1.3125 C36.72874958 2.89765578 36.76351889 4.48739466 36.77026367 6.07592773 C36.77664352 7.09045517 36.78302338 8.1049826 36.78959656 9.1502533 C36.79070938 10.25438065 36.7918222 11.358508 36.79296875 12.49609375 C36.79796135 14.18485374 36.79796135 14.18485374 36.80305481 15.9077301 C36.80812894 18.29435821 36.81046299 20.68099345 36.81030273 23.06762695 C36.81248851 26.73074974 36.8306374 30.39357122 36.84960938 34.05664062 C36.85254326 36.36979063 36.85452809 38.68294208 36.85546875 40.99609375 C36.86265427 42.09819687 36.86983978 43.20029999 36.87724304 44.33580017 C36.87416641 45.35347977 36.87108978 46.37115936 36.86791992 47.41967773 C36.86934494 48.31822983 36.87076996 49.21678192 36.87223816 50.14256287 C36.625 52.3125 36.625 52.3125 34.625 54.3125 C32.63671875 54.6484375 32.63671875 54.6484375 30.3125 54.6875 C29.55324219 54.71585938 28.79398438 54.74421875 28.01171875 54.7734375 C24.66564921 54.1272244 23.12911186 52.60952276 20.625 50.3125 C18.80395508 47.44335937 18.80395508 47.44335937 17.14453125 44.15625 C16.84560471 43.57210327 16.54667816 42.98795654 16.23869324 42.3861084 C15.29389968 40.53361204 14.3655515 38.67343033 13.4375 36.8125 C12.80380548 35.56325818 12.16904909 34.31455439 11.53320312 33.06640625 C9.88375619 29.82174895 8.25124063 26.56886052 6.625 23.3125 C5.965 21.9925 5.305 20.6725 4.625 19.3125 C4.295 30.5325 3.965 41.7525 3.625 53.3125 C0.63905576 54.80547212 -2.08353624 54.43005228 -5.375 54.3125 C-6.035 53.9825 -6.695 53.6525 -7.375 53.3125 C-7.45087458 46.08600568 -7.50352551 38.85961351 -7.53979492 31.6328125 C-7.55490988 29.17281252 -7.57540227 26.71283959 -7.60131836 24.25292969 C-7.6375823 20.72323948 -7.65469914 17.19390456 -7.66796875 13.6640625 C-7.68345261 12.55882233 -7.69893646 11.45358215 -7.71488953 10.31484985 C-7.71511612 9.29394257 -7.71534271 8.27303528 -7.71557617 7.22119141 C-7.72223801 6.31962311 -7.72889984 5.41805481 -7.73576355 4.48916626 C-7.61671158 3.77086639 -7.49765961 3.05256653 -7.375 2.3125 C-4.30245875 0.26413917 -3.50331715 0.01793507 0 0 Z " fill="#C490D4" transform="translate(130.375,31.6875)"/>
<path d="M0 0 C0.80566406 0.00257812 1.61132812 0.00515625 2.44140625 0.0078125 C3.64603516 0.00394531 3.64603516 0.00394531 4.875 0 C7.00390625 0.1328125 7.00390625 0.1328125 9.00390625 1.1328125 C9.00390625 7.7328125 9.00390625 14.3328125 9.00390625 21.1328125 C14.94390625 21.1328125 20.88390625 21.1328125 27.00390625 21.1328125 C26.98070312 19.78445312 26.9575 18.43609375 26.93359375 17.046875 C26.91483827 15.28385969 26.89663783 13.52083841 26.87890625 11.7578125 C26.86214844 10.86835937 26.84539062 9.97890625 26.828125 9.0625 C26.82167969 8.21171875 26.81523437 7.3609375 26.80859375 6.484375 C26.79812012 5.69885254 26.78764648 4.91333008 26.77685547 4.10400391 C27.00390625 2.1328125 27.00390625 2.1328125 29.00390625 0.1328125 C30.87890625 -0.09765625 30.87890625 -0.09765625 33.00390625 -0.0546875 C34.05578125 -0.04501953 34.05578125 -0.04501953 35.12890625 -0.03515625 C37.00390625 0.1328125 37.00390625 0.1328125 39.00390625 1.1328125 C39.02917317 8.52009352 39.04673785 15.90736348 39.05883789 23.29467773 C39.06387988 25.80998145 39.07071328 28.32528222 39.0793457 30.84057617 C39.09141719 34.44711025 39.09713574 38.05360573 39.1015625 41.66015625 C39.10672379 42.79243149 39.11188507 43.92470673 39.11720276 45.09129333 C39.11727829 46.13229691 39.11735382 47.17330048 39.11743164 48.24584961 C39.11965225 49.16740341 39.12187286 50.08895721 39.12416077 51.03843689 C39.00390625 53.1328125 39.00390625 53.1328125 38.00390625 54.1328125 C36.0078125 54.30078125 36.0078125 54.30078125 33.56640625 54.3203125 C32.76332031 54.33449219 31.96023438 54.34867188 31.1328125 54.36328125 C29.00390625 54.1328125 29.00390625 54.1328125 27.00390625 52.1328125 C26.77685547 49.97802734 26.77685547 49.97802734 26.80859375 47.34375 C26.81503906 46.40273437 26.82148438 45.46171875 26.828125 44.4921875 C26.84488281 43.50734375 26.86164063 42.5225 26.87890625 41.5078125 C26.88792969 40.51523438 26.89695312 39.52265625 26.90625 38.5 C26.92986376 36.04416862 26.96573555 33.58846076 27.00390625 31.1328125 C21.06390625 31.1328125 15.12390625 31.1328125 9.00390625 31.1328125 C9.00390625 38.3928125 9.00390625 45.6528125 9.00390625 53.1328125 C6.75878363 54.25537381 5.48933976 54.26695012 3.00390625 54.2578125 C1.95203125 54.26167969 1.95203125 54.26167969 0.87890625 54.265625 C-0.99609375 54.1328125 -0.99609375 54.1328125 -2.99609375 53.1328125 C-3.02136067 45.74553148 -3.03892535 38.35826152 -3.05102539 30.97094727 C-3.05606738 28.45564355 -3.06290078 25.94034278 -3.0715332 23.42504883 C-3.08360469 19.81851475 -3.08932324 16.21201927 -3.09375 12.60546875 C-3.09891129 11.47319351 -3.10407257 10.34091827 -3.10939026 9.17433167 C-3.10946579 8.13332809 -3.10954132 7.09232452 -3.10961914 6.01977539 C-3.11183975 5.09822159 -3.11406036 4.17666779 -3.11634827 3.22718811 C-2.95720114 0.45545144 -2.76929939 0.18425867 0 0 Z " fill="#C490D4" transform="translate(286.99609375,31.8671875)"/>
<path d="M0 0 C0.80566406 0.00257812 1.61132812 0.00515625 2.44140625 0.0078125 C3.64603516 0.00394531 3.64603516 0.00394531 4.875 0 C7.00390625 0.1328125 7.00390625 0.1328125 9.00390625 1.1328125 C9.00390625 7.7328125 9.00390625 14.3328125 9.00390625 21.1328125 C14.94390625 21.1328125 20.88390625 21.1328125 27.00390625 21.1328125 C26.98070313 19.78445312 26.9575 18.43609375 26.93359375 17.046875 C26.91483827 15.28385969 26.89663783 13.52083841 26.87890625 11.7578125 C26.86214844 10.86835937 26.84539063 9.97890625 26.828125 9.0625 C26.82167969 8.21171875 26.81523438 7.3609375 26.80859375 6.484375 C26.79812012 5.69885254 26.78764648 4.91333008 26.77685547 4.10400391 C27.00390625 2.1328125 27.00390625 2.1328125 29.00390625 0.1328125 C30.87890625 -0.09765625 30.87890625 -0.09765625 33.00390625 -0.0546875 C34.05578125 -0.04501953 34.05578125 -0.04501953 35.12890625 -0.03515625 C37.00390625 0.1328125 37.00390625 0.1328125 39.00390625 1.1328125 C39.02917317 8.52009352 39.04673785 15.90736348 39.05883789 23.29467773 C39.06387988 25.80998145 39.07071328 28.32528222 39.0793457 30.84057617 C39.09141719 34.44711025 39.09713574 38.05360573 39.1015625 41.66015625 C39.10672379 42.79243149 39.11188507 43.92470673 39.11720276 45.09129333 C39.11727829 46.13229691 39.11735382 47.17330048 39.11743164 48.24584961 C39.11965225 49.16740341 39.12187286 50.08895721 39.12416077 51.03843689 C39.00390625 53.1328125 39.00390625 53.1328125 38.00390625 54.1328125 C36.0078125 54.30078125 36.0078125 54.30078125 33.56640625 54.3203125 C32.76332031 54.33449219 31.96023437 54.34867188 31.1328125 54.36328125 C29.00390625 54.1328125 29.00390625 54.1328125 27.00390625 52.1328125 C26.77685547 49.97802734 26.77685547 49.97802734 26.80859375 47.34375 C26.81503906 46.40273437 26.82148437 45.46171875 26.828125 44.4921875 C26.84488281 43.50734375 26.86164062 42.5225 26.87890625 41.5078125 C26.88792969 40.51523438 26.89695312 39.52265625 26.90625 38.5 C26.92986376 36.04416862 26.96573555 33.58846076 27.00390625 31.1328125 C21.06390625 31.1328125 15.12390625 31.1328125 9.00390625 31.1328125 C9.00390625 38.3928125 9.00390625 45.6528125 9.00390625 53.1328125 C6.75878363 54.25537381 5.48933976 54.26695012 3.00390625 54.2578125 C1.95203125 54.26167969 1.95203125 54.26167969 0.87890625 54.265625 C-0.99609375 54.1328125 -0.99609375 54.1328125 -2.99609375 53.1328125 C-3.02136067 45.74553148 -3.03892535 38.35826152 -3.05102539 30.97094727 C-3.05606738 28.45564355 -3.06290078 25.94034278 -3.0715332 23.42504883 C-3.08360469 19.81851475 -3.08932324 16.21201927 -3.09375 12.60546875 C-3.09891129 11.47319351 -3.10407257 10.34091827 -3.10939026 9.17433167 C-3.10946579 8.13332809 -3.10954132 7.09232452 -3.10961914 6.01977539 C-3.11183975 5.09822159 -3.11406036 4.17666779 -3.11634827 3.22718811 C-2.95720114 0.45545144 -2.76929939 0.18425867 0 0 Z " fill="#C490D4" transform="translate(22.99609375,31.8671875)"/>
<path d="M0 0 C1.06089844 -0.03996094 2.12179688 -0.07992188 3.21484375 -0.12109375 C6.0625 0.4375 6.0625 0.4375 7.51928711 2.36499023 C9.60076736 6.50918085 11.09369366 10.77577105 12.6015625 15.15625 C12.92788666 16.09174683 13.25421082 17.02724365 13.59042358 17.99108887 C14.2771497 19.96367052 14.96114521 21.93720465 15.64257812 23.91162109 C16.68462055 26.92916172 17.73613938 29.9432723 18.7890625 32.95703125 C19.45629285 34.87740841 20.122978 36.7979751 20.7890625 38.71875 C21.10259674 39.61783081 21.41613098 40.51691162 21.73916626 41.4432373 C22.02971893 42.28761353 22.32027161 43.13198975 22.61962891 44.00195312 C22.87483307 44.73965942 23.13003723 45.47736572 23.39297485 46.23742676 C24.12100692 48.62975494 24.68665572 50.96454306 25.0625 53.4375 C23.40219118 55.09780882 21.46496403 54.72668251 19.1875 54.8125 C16.4453125 54.78125 16.4453125 54.78125 14.0625 54.4375 C11.01025521 51.19448992 10.50778982 47.77336946 9.0625 43.4375 C2.7925 43.1075 -3.4775 42.7775 -9.9375 42.4375 C-10.411875 44.231875 -10.88625 46.02625 -11.375 47.875 C-12.8125 53.3125 -12.8125 53.3125 -13.9375 54.4375 C-15.43488124 54.5354057 -16.93692892 54.56724864 -18.4375 54.5625 C-19.2521875 54.56507812 -20.066875 54.56765625 -20.90625 54.5703125 C-22.9375 54.4375 -22.9375 54.4375 -23.9375 53.4375 C-23.50412246 46.99416198 -21.77820854 41.38131147 -19.62890625 35.3203125 C-19.30212387 34.3819455 -18.97534149 33.44357849 -18.63865662 32.47677612 C-17.95069835 30.50725699 -17.25882468 28.53910156 -16.56323242 26.57226562 C-15.49712384 23.55435826 -14.44596658 20.53153662 -13.39648438 17.5078125 C-12.72483604 15.59083809 -12.0523399 13.67416046 -11.37890625 11.7578125 C-11.06425919 10.852659 -10.74961212 9.94750549 -10.4254303 9.0149231 C-9.98003151 7.76254349 -9.98003151 7.76254349 -9.52563477 6.48486328 C-9.2666188 5.74954376 -9.00760284 5.01422424 -8.74073792 4.25662231 C-6.82590153 -0.07997776 -4.359574 0.08983365 0 0 Z M-0.9375 12.4375 C-1.94486628 15.37252595 -2.94210504 18.31089461 -3.9375 21.25 C-4.36675781 22.50006836 -4.36675781 22.50006836 -4.8046875 23.77539062 C-5.07539063 24.57783203 -5.34609375 25.38027344 -5.625 26.20703125 C-6.00205078 27.31461792 -6.00205078 27.31461792 -6.38671875 28.44458008 C-7.07069151 30.57482879 -7.07069151 30.57482879 -6.9375 33.4375 C-2.6475 33.4375 1.6425 33.4375 6.0625 33.4375 C4.61863874 26.21819368 2.48461826 19.38639267 0.0625 12.4375 C-0.2675 12.4375 -0.5975 12.4375 -0.9375 12.4375 Z " fill="#C192D5" transform="translate(252.9375,31.5625)"/>
<path d="M0 0 C1.06089844 -0.03996094 2.12179688 -0.07992188 3.21484375 -0.12109375 C6.0625 0.4375 6.0625 0.4375 7.51928711 2.36499023 C9.60076736 6.50918085 11.09369366 10.77577105 12.6015625 15.15625 C12.92788666 16.09174683 13.25421082 17.02724365 13.59042358 17.99108887 C14.2771497 19.96367052 14.96114521 21.93720465 15.64257812 23.91162109 C16.68462055 26.92916172 17.73613938 29.9432723 18.7890625 32.95703125 C19.45629285 34.87740841 20.122978 36.7979751 20.7890625 38.71875 C21.10259674 39.61783081 21.41613098 40.51691162 21.73916626 41.4432373 C22.02971893 42.28761353 22.32027161 43.13198975 22.61962891 44.00195312 C22.87483307 44.73965942 23.13003723 45.47736572 23.39297485 46.23742676 C24.12100692 48.62975494 24.68665572 50.96454306 25.0625 53.4375 C23.40219118 55.09780882 21.46496403 54.72668251 19.1875 54.8125 C16.4453125 54.78125 16.4453125 54.78125 14.0625 54.4375 C11.01025521 51.19448992 10.50778982 47.77336946 9.0625 43.4375 C2.7925 43.1075 -3.4775 42.7775 -9.9375 42.4375 C-10.411875 44.231875 -10.88625 46.02625 -11.375 47.875 C-12.8125 53.3125 -12.8125 53.3125 -13.9375 54.4375 C-15.43488124 54.5354057 -16.93692892 54.56724864 -18.4375 54.5625 C-19.2521875 54.56507812 -20.066875 54.56765625 -20.90625 54.5703125 C-22.9375 54.4375 -22.9375 54.4375 -23.9375 53.4375 C-23.50412246 46.99416198 -21.77820854 41.38131147 -19.62890625 35.3203125 C-19.30212387 34.3819455 -18.97534149 33.44357849 -18.63865662 32.47677612 C-17.95069835 30.50725699 -17.25882468 28.53910156 -16.56323242 26.57226562 C-15.49712384 23.55435826 -14.44596658 20.53153662 -13.39648438 17.5078125 C-12.72483604 15.59083809 -12.0523399 13.67416046 -11.37890625 11.7578125 C-11.06425919 10.852659 -10.74961212 9.94750549 -10.4254303 9.0149231 C-9.98003151 7.76254349 -9.98003151 7.76254349 -9.52563477 6.48486328 C-9.2666188 5.74954376 -9.00760284 5.01422424 -8.74073792 4.25662231 C-6.82590153 -0.07997776 -4.359574 0.08983365 0 0 Z M-0.9375 12.4375 C-1.94486628 15.37252595 -2.94210504 18.31089461 -3.9375 21.25 C-4.36675781 22.50006836 -4.36675781 22.50006836 -4.8046875 23.77539062 C-5.07539062 24.57783203 -5.34609375 25.38027344 -5.625 26.20703125 C-6.00205078 27.31461792 -6.00205078 27.31461792 -6.38671875 28.44458008 C-7.07069151 30.57482879 -7.07069151 30.57482879 -6.9375 33.4375 C-2.6475 33.4375 1.6425 33.4375 6.0625 33.4375 C4.61863874 26.21819368 2.48461826 19.38639267 0.0625 12.4375 C-0.2675 12.4375 -0.5975 12.4375 -0.9375 12.4375 Z " fill="#C192D5" transform="translate(92.9375,31.5625)"/>
</svg>
